<mxfile host="app.diagrams.net" agent="Mozilla/5.0 (Windows NT 10.0; Win64; x64) AppleWebKit/537.36 (KHTML, like Gecko) Chrome/131.0.0.0 Safari/537.36" version="26.0.2" pages="3">
  <diagram id="kgpKYQtTHZ0yAKxKKP6v" name="Process create order &amp; food serving">
    <mxGraphModel dx="1985" dy="1115" grid="1" gridSize="10" guides="1" tooltips="1" connect="1" arrows="1" fold="1" page="1" pageScale="1" pageWidth="850" pageHeight="1100" background="none" math="0" shadow="0">
      <root>
        <mxCell id="0" />
        <mxCell id="1" parent="0" />
        <mxCell id="3nuBFxr9cyL0pnOWT2aG-1" value="Process Order Via E-Kiosk" style="shape=table;childLayout=tableLayout;startSize=40;collapsible=0;recursiveResize=0;expand=0;fillColor=none;fontStyle=1;strokeColor=default;" parent="1" vertex="1">
          <mxGeometry x="41" y="40" width="730" height="1050" as="geometry" />
        </mxCell>
        <mxCell id="3nuBFxr9cyL0pnOWT2aG-3" value="Process Create Order" style="shape=tableRow;horizontal=0;swimlaneHead=0;swimlaneBody=0;top=0;left=0;bottom=0;right=0;fillColor=none;points=[[0,0.5],[1,0.5]];portConstraint=eastwest;startSize=40;collapsible=0;recursiveResize=0;expand=0;fontStyle=1;verticalAlign=middle;" parent="3nuBFxr9cyL0pnOWT2aG-1" vertex="1">
          <mxGeometry y="40" width="730" height="767" as="geometry" />
        </mxCell>
        <mxCell id="3nuBFxr9cyL0pnOWT2aG-4" value="Visitor" style="swimlane;swimlaneHead=0;swimlaneBody=0;connectable=0;fillColor=none;startSize=40;collapsible=0;recursiveResize=0;expand=0;fontStyle=1;" parent="3nuBFxr9cyL0pnOWT2aG-3" vertex="1">
          <mxGeometry x="40" width="240" height="767" as="geometry">
            <mxRectangle width="240" height="767" as="alternateBounds" />
          </mxGeometry>
        </mxCell>
        <mxCell id="3nuBFxr9cyL0pnOWT2aG-5" style="edgeStyle=orthogonalEdgeStyle;rounded=0;orthogonalLoop=1;jettySize=auto;html=1;" parent="3nuBFxr9cyL0pnOWT2aG-4" source="3nuBFxr9cyL0pnOWT2aG-6" target="3nuBFxr9cyL0pnOWT2aG-7" edge="1">
          <mxGeometry relative="1" as="geometry" />
        </mxCell>
        <mxCell id="3nuBFxr9cyL0pnOWT2aG-6" value="Start" style="rounded=1;whiteSpace=wrap;html=1;arcSize=50;" parent="3nuBFxr9cyL0pnOWT2aG-4" vertex="1">
          <mxGeometry x="20" y="60" width="90" height="40" as="geometry" />
        </mxCell>
        <mxCell id="W2rVxUREge4952YScxTI-3" value="" style="edgeStyle=orthogonalEdgeStyle;rounded=0;orthogonalLoop=1;jettySize=auto;html=1;" edge="1" parent="3nuBFxr9cyL0pnOWT2aG-4" source="3nuBFxr9cyL0pnOWT2aG-7" target="W2rVxUREge4952YScxTI-1">
          <mxGeometry relative="1" as="geometry" />
        </mxCell>
        <mxCell id="3nuBFxr9cyL0pnOWT2aG-7" value="Visitor ke e-kiosk" style="rounded=0;whiteSpace=wrap;html=1;" parent="3nuBFxr9cyL0pnOWT2aG-4" vertex="1">
          <mxGeometry x="15" y="130" width="100" height="40" as="geometry" />
        </mxCell>
        <mxCell id="W2rVxUREge4952YScxTI-22" value="" style="edgeStyle=orthogonalEdgeStyle;rounded=0;orthogonalLoop=1;jettySize=auto;html=1;" edge="1" parent="3nuBFxr9cyL0pnOWT2aG-4" source="8gZVjbfg4hmPIhG3AT7P-2" target="8gZVjbfg4hmPIhG3AT7P-8">
          <mxGeometry relative="1" as="geometry" />
        </mxCell>
        <mxCell id="8gZVjbfg4hmPIhG3AT7P-2" value="Pilih menu" style="rounded=0;whiteSpace=wrap;html=1;" vertex="1" parent="3nuBFxr9cyL0pnOWT2aG-4">
          <mxGeometry x="20" y="303" width="90" height="40" as="geometry" />
        </mxCell>
        <mxCell id="W2rVxUREge4952YScxTI-24" value="" style="edgeStyle=orthogonalEdgeStyle;rounded=0;orthogonalLoop=1;jettySize=auto;html=1;" edge="1" parent="3nuBFxr9cyL0pnOWT2aG-4" source="8gZVjbfg4hmPIhG3AT7P-8" target="W2rVxUREge4952YScxTI-23">
          <mxGeometry relative="1" as="geometry" />
        </mxCell>
        <mxCell id="8gZVjbfg4hmPIhG3AT7P-8" value="Checkout" style="rounded=0;whiteSpace=wrap;html=1;" vertex="1" parent="3nuBFxr9cyL0pnOWT2aG-4">
          <mxGeometry x="20" y="377" width="90" height="40" as="geometry" />
        </mxCell>
        <mxCell id="W2rVxUREge4952YScxTI-5" value="" style="edgeStyle=orthogonalEdgeStyle;rounded=0;orthogonalLoop=1;jettySize=auto;html=1;entryX=0;entryY=0.5;entryDx=0;entryDy=0;" edge="1" parent="3nuBFxr9cyL0pnOWT2aG-4" source="W2rVxUREge4952YScxTI-1" target="3nuBFxr9cyL0pnOWT2aG-17">
          <mxGeometry relative="1" as="geometry" />
        </mxCell>
        <mxCell id="W2rVxUREge4952YScxTI-6" value="Yes" style="edgeLabel;html=1;align=center;verticalAlign=middle;resizable=0;points=[];" vertex="1" connectable="0" parent="W2rVxUREge4952YScxTI-5">
          <mxGeometry x="-0.0674" y="-2" relative="1" as="geometry">
            <mxPoint as="offset" />
          </mxGeometry>
        </mxCell>
        <mxCell id="W2rVxUREge4952YScxTI-19" value="" style="edgeStyle=orthogonalEdgeStyle;rounded=0;orthogonalLoop=1;jettySize=auto;html=1;entryX=0.5;entryY=0;entryDx=0;entryDy=0;" edge="1" parent="3nuBFxr9cyL0pnOWT2aG-4" source="W2rVxUREge4952YScxTI-1" target="8gZVjbfg4hmPIhG3AT7P-2">
          <mxGeometry relative="1" as="geometry" />
        </mxCell>
        <mxCell id="W2rVxUREge4952YScxTI-1" value="Special event?" style="rhombus;whiteSpace=wrap;html=1;" vertex="1" parent="3nuBFxr9cyL0pnOWT2aG-4">
          <mxGeometry x="25" y="198" width="80" height="80" as="geometry" />
        </mxCell>
        <mxCell id="3nuBFxr9cyL0pnOWT2aG-17" value="Input jumlah visitor" style="rounded=0;whiteSpace=wrap;html=1;" parent="3nuBFxr9cyL0pnOWT2aG-4" vertex="1">
          <mxGeometry x="144" y="130" width="90" height="40" as="geometry" />
        </mxCell>
        <mxCell id="8gZVjbfg4hmPIhG3AT7P-5" value="" style="edgeStyle=orthogonalEdgeStyle;rounded=0;orthogonalLoop=1;jettySize=auto;html=1;entryX=1;entryY=0.5;entryDx=0;entryDy=0;exitX=0.5;exitY=1;exitDx=0;exitDy=0;" edge="1" parent="3nuBFxr9cyL0pnOWT2aG-4" source="3nuBFxr9cyL0pnOWT2aG-17" target="8gZVjbfg4hmPIhG3AT7P-2">
          <mxGeometry relative="1" as="geometry">
            <mxPoint x="120" y="150" as="sourcePoint" />
            <mxPoint x="140" y="150" as="targetPoint" />
          </mxGeometry>
        </mxCell>
        <mxCell id="W2rVxUREge4952YScxTI-26" value="" style="edgeStyle=orthogonalEdgeStyle;rounded=0;orthogonalLoop=1;jettySize=auto;html=1;" edge="1" parent="3nuBFxr9cyL0pnOWT2aG-4" source="W2rVxUREge4952YScxTI-23" target="W2rVxUREge4952YScxTI-25">
          <mxGeometry relative="1" as="geometry" />
        </mxCell>
        <mxCell id="W2rVxUREge4952YScxTI-32" value="Yes" style="edgeLabel;html=1;align=center;verticalAlign=middle;resizable=0;points=[];" vertex="1" connectable="0" parent="W2rVxUREge4952YScxTI-26">
          <mxGeometry x="-0.4545" y="1" relative="1" as="geometry">
            <mxPoint as="offset" />
          </mxGeometry>
        </mxCell>
        <mxCell id="W2rVxUREge4952YScxTI-46" value="" style="edgeStyle=orthogonalEdgeStyle;rounded=0;orthogonalLoop=1;jettySize=auto;html=1;" edge="1" parent="3nuBFxr9cyL0pnOWT2aG-4" source="W2rVxUREge4952YScxTI-23" target="8gZVjbfg4hmPIhG3AT7P-11">
          <mxGeometry relative="1" as="geometry" />
        </mxCell>
        <mxCell id="W2rVxUREge4952YScxTI-47" value="No" style="edgeLabel;html=1;align=center;verticalAlign=middle;resizable=0;points=[];" vertex="1" connectable="0" parent="W2rVxUREge4952YScxTI-46">
          <mxGeometry x="-0.6773" y="4" relative="1" as="geometry">
            <mxPoint as="offset" />
          </mxGeometry>
        </mxCell>
        <mxCell id="W2rVxUREge4952YScxTI-23" value="Special event?" style="rhombus;whiteSpace=wrap;html=1;" vertex="1" parent="3nuBFxr9cyL0pnOWT2aG-4">
          <mxGeometry x="25" y="445" width="80" height="80" as="geometry" />
        </mxCell>
        <mxCell id="W2rVxUREge4952YScxTI-28" value="" style="edgeStyle=orthogonalEdgeStyle;rounded=0;orthogonalLoop=1;jettySize=auto;html=1;" edge="1" parent="3nuBFxr9cyL0pnOWT2aG-4" source="W2rVxUREge4952YScxTI-25" target="W2rVxUREge4952YScxTI-27">
          <mxGeometry relative="1" as="geometry" />
        </mxCell>
        <mxCell id="W2rVxUREge4952YScxTI-25" value="Cek minimun order" style="rounded=0;whiteSpace=wrap;html=1;" vertex="1" parent="3nuBFxr9cyL0pnOWT2aG-4">
          <mxGeometry x="144" y="465" width="90" height="40" as="geometry" />
        </mxCell>
        <mxCell id="W2rVxUREge4952YScxTI-27" value="Fulfilled?" style="rhombus;whiteSpace=wrap;html=1;" vertex="1" parent="3nuBFxr9cyL0pnOWT2aG-4">
          <mxGeometry x="153" y="544" width="70" height="50" as="geometry" />
        </mxCell>
        <mxCell id="W2rVxUREge4952YScxTI-59" value="" style="edgeStyle=orthogonalEdgeStyle;rounded=0;orthogonalLoop=1;jettySize=auto;html=1;" edge="1" parent="3nuBFxr9cyL0pnOWT2aG-4" source="8gZVjbfg4hmPIhG3AT7P-14" target="8gZVjbfg4hmPIhG3AT7P-18">
          <mxGeometry relative="1" as="geometry" />
        </mxCell>
        <mxCell id="8gZVjbfg4hmPIhG3AT7P-14" value="Payment" style="rounded=0;whiteSpace=wrap;html=1;" vertex="1" parent="3nuBFxr9cyL0pnOWT2aG-4">
          <mxGeometry x="20" y="665" width="90" height="40" as="geometry" />
        </mxCell>
        <mxCell id="W2rVxUREge4952YScxTI-40" value="" style="edgeStyle=orthogonalEdgeStyle;rounded=0;orthogonalLoop=1;jettySize=auto;html=1;entryX=1;entryY=0.75;entryDx=0;entryDy=0;" edge="1" parent="3nuBFxr9cyL0pnOWT2aG-4" source="W2rVxUREge4952YScxTI-27" target="8gZVjbfg4hmPIhG3AT7P-2">
          <mxGeometry relative="1" as="geometry">
            <mxPoint x="64" y="569" as="targetPoint" />
          </mxGeometry>
        </mxCell>
        <mxCell id="W2rVxUREge4952YScxTI-44" value="No" style="edgeLabel;html=1;align=center;verticalAlign=middle;resizable=0;points=[];" vertex="1" connectable="0" parent="W2rVxUREge4952YScxTI-40">
          <mxGeometry x="-0.4909" y="3" relative="1" as="geometry">
            <mxPoint as="offset" />
          </mxGeometry>
        </mxCell>
        <mxCell id="8gZVjbfg4hmPIhG3AT7P-11" value="Input no table &amp;amp; order name" style="rounded=0;whiteSpace=wrap;html=1;" vertex="1" parent="3nuBFxr9cyL0pnOWT2aG-4">
          <mxGeometry x="20" y="599" width="90" height="40" as="geometry" />
        </mxCell>
        <mxCell id="W2rVxUREge4952YScxTI-49" value="" style="edgeStyle=orthogonalEdgeStyle;rounded=0;orthogonalLoop=1;jettySize=auto;html=1;entryX=1;entryY=0.5;entryDx=0;entryDy=0;" edge="1" parent="3nuBFxr9cyL0pnOWT2aG-4" source="W2rVxUREge4952YScxTI-27" target="8gZVjbfg4hmPIhG3AT7P-11">
          <mxGeometry relative="1" as="geometry">
            <mxPoint x="188" y="673.9999999999998" as="targetPoint" />
            <Array as="points">
              <mxPoint x="188" y="619" />
            </Array>
          </mxGeometry>
        </mxCell>
        <mxCell id="W2rVxUREge4952YScxTI-51" value="Yes" style="edgeLabel;html=1;align=center;verticalAlign=middle;resizable=0;points=[];" vertex="1" connectable="0" parent="W2rVxUREge4952YScxTI-49">
          <mxGeometry x="0.0624" y="-1" relative="1" as="geometry">
            <mxPoint x="1" as="offset" />
          </mxGeometry>
        </mxCell>
        <mxCell id="W2rVxUREge4952YScxTI-57" value="" style="edgeStyle=orthogonalEdgeStyle;rounded=0;orthogonalLoop=1;jettySize=auto;html=1;entryX=0.5;entryY=0;entryDx=0;entryDy=0;" edge="1" parent="3nuBFxr9cyL0pnOWT2aG-4" source="8gZVjbfg4hmPIhG3AT7P-11" target="8gZVjbfg4hmPIhG3AT7P-14">
          <mxGeometry relative="1" as="geometry" />
        </mxCell>
        <mxCell id="8gZVjbfg4hmPIhG3AT7P-18" value="Orderan masuk ke kitchen" style="shape=cylinder3;whiteSpace=wrap;html=1;boundedLbl=1;backgroundOutline=1;size=15;" vertex="1" parent="3nuBFxr9cyL0pnOWT2aG-4">
          <mxGeometry x="153" y="645" width="60" height="80" as="geometry" />
        </mxCell>
        <mxCell id="3nuBFxr9cyL0pnOWT2aG-8" value="Kitchen" style="swimlane;swimlaneHead=0;swimlaneBody=0;connectable=0;fillColor=none;startSize=40;collapsible=0;recursiveResize=0;expand=0;fontStyle=1;" parent="3nuBFxr9cyL0pnOWT2aG-3" vertex="1">
          <mxGeometry x="280" width="270" height="767" as="geometry">
            <mxRectangle width="270" height="767" as="alternateBounds" />
          </mxGeometry>
        </mxCell>
        <mxCell id="3nuBFxr9cyL0pnOWT2aG-11" value="Waitress" style="swimlane;swimlaneHead=0;swimlaneBody=0;connectable=0;fillColor=none;startSize=40;collapsible=0;recursiveResize=0;expand=0;fontStyle=1;" parent="3nuBFxr9cyL0pnOWT2aG-3" vertex="1">
          <mxGeometry x="550" width="180" height="767" as="geometry">
            <mxRectangle width="180" height="767" as="alternateBounds" />
          </mxGeometry>
        </mxCell>
        <mxCell id="3nuBFxr9cyL0pnOWT2aG-15" value="Process Food Serving" style="shape=tableRow;horizontal=0;swimlaneHead=0;swimlaneBody=0;top=0;left=0;bottom=0;right=0;fillColor=none;points=[[0,0.5],[1,0.5]];portConstraint=eastwest;startSize=40;collapsible=0;recursiveResize=0;expand=0;fontStyle=1;" parent="3nuBFxr9cyL0pnOWT2aG-1" vertex="1">
          <mxGeometry y="807" width="730" height="243" as="geometry" />
        </mxCell>
        <mxCell id="3nuBFxr9cyL0pnOWT2aG-16" value="" style="swimlane;swimlaneHead=0;swimlaneBody=0;connectable=0;fillColor=none;startSize=0;collapsible=0;recursiveResize=0;expand=0;fontStyle=1;" parent="3nuBFxr9cyL0pnOWT2aG-15" vertex="1">
          <mxGeometry x="40" width="240" height="243" as="geometry">
            <mxRectangle width="240" height="243" as="alternateBounds" />
          </mxGeometry>
        </mxCell>
        <mxCell id="8gZVjbfg4hmPIhG3AT7P-20" value="Visitor duduk di meja" style="rounded=0;whiteSpace=wrap;html=1;" vertex="1" parent="3nuBFxr9cyL0pnOWT2aG-16">
          <mxGeometry x="20" y="-52" width="90" height="40" as="geometry" />
        </mxCell>
        <mxCell id="3nuBFxr9cyL0pnOWT2aG-18" value="" style="swimlane;swimlaneHead=0;swimlaneBody=0;connectable=0;fillColor=none;startSize=0;collapsible=0;recursiveResize=0;expand=0;fontStyle=1;" parent="3nuBFxr9cyL0pnOWT2aG-15" vertex="1">
          <mxGeometry x="280" width="270" height="243" as="geometry">
            <mxRectangle width="270" height="243" as="alternateBounds" />
          </mxGeometry>
        </mxCell>
        <mxCell id="3nuBFxr9cyL0pnOWT2aG-9" value="Lihat list orderan" style="rounded=0;whiteSpace=wrap;html=1;" parent="3nuBFxr9cyL0pnOWT2aG-18" vertex="1">
          <mxGeometry x="30" y="20" width="90" height="40" as="geometry" />
        </mxCell>
        <mxCell id="8gZVjbfg4hmPIhG3AT7P-34" value="" style="edgeStyle=orthogonalEdgeStyle;rounded=0;orthogonalLoop=1;jettySize=auto;html=1;" edge="1" parent="3nuBFxr9cyL0pnOWT2aG-18" source="3nuBFxr9cyL0pnOWT2aG-10" target="8gZVjbfg4hmPIhG3AT7P-33">
          <mxGeometry relative="1" as="geometry" />
        </mxCell>
        <mxCell id="3nuBFxr9cyL0pnOWT2aG-10" value="Masak" style="rounded=0;whiteSpace=wrap;html=1;" parent="3nuBFxr9cyL0pnOWT2aG-18" vertex="1">
          <mxGeometry x="160" y="20" width="90" height="40" as="geometry" />
        </mxCell>
        <mxCell id="8gZVjbfg4hmPIhG3AT7P-24" value="" style="edgeStyle=orthogonalEdgeStyle;rounded=0;orthogonalLoop=1;jettySize=auto;html=1;" edge="1" parent="3nuBFxr9cyL0pnOWT2aG-18" source="3nuBFxr9cyL0pnOWT2aG-9" target="3nuBFxr9cyL0pnOWT2aG-10">
          <mxGeometry relative="1" as="geometry" />
        </mxCell>
        <mxCell id="8gZVjbfg4hmPIhG3AT7P-33" value="Update food already cooked" style="rounded=0;whiteSpace=wrap;html=1;" vertex="1" parent="3nuBFxr9cyL0pnOWT2aG-18">
          <mxGeometry x="160" y="90" width="90" height="40" as="geometry" />
        </mxCell>
        <mxCell id="3nuBFxr9cyL0pnOWT2aG-23" value="" style="swimlane;swimlaneHead=0;swimlaneBody=0;connectable=0;fillColor=none;startSize=0;collapsible=0;recursiveResize=0;expand=0;fontStyle=1;" parent="3nuBFxr9cyL0pnOWT2aG-15" vertex="1">
          <mxGeometry x="550" width="180" height="243" as="geometry">
            <mxRectangle width="180" height="243" as="alternateBounds" />
          </mxGeometry>
        </mxCell>
        <mxCell id="8gZVjbfg4hmPIhG3AT7P-76" value="" style="edgeStyle=orthogonalEdgeStyle;rounded=0;orthogonalLoop=1;jettySize=auto;html=1;" edge="1" parent="3nuBFxr9cyL0pnOWT2aG-23" source="8gZVjbfg4hmPIhG3AT7P-35" target="8gZVjbfg4hmPIhG3AT7P-74">
          <mxGeometry relative="1" as="geometry" />
        </mxCell>
        <mxCell id="8gZVjbfg4hmPIhG3AT7P-35" value="Update food served" style="rounded=0;whiteSpace=wrap;html=1;" vertex="1" parent="3nuBFxr9cyL0pnOWT2aG-23">
          <mxGeometry x="20" y="90" width="90" height="40" as="geometry" />
        </mxCell>
        <mxCell id="8gZVjbfg4hmPIhG3AT7P-74" value="Anter ke meja visitor" style="rounded=0;whiteSpace=wrap;html=1;" vertex="1" parent="3nuBFxr9cyL0pnOWT2aG-23">
          <mxGeometry x="20" y="160" width="90" height="40" as="geometry" />
        </mxCell>
        <mxCell id="8gZVjbfg4hmPIhG3AT7P-36" value="" style="edgeStyle=orthogonalEdgeStyle;rounded=0;orthogonalLoop=1;jettySize=auto;html=1;" edge="1" parent="3nuBFxr9cyL0pnOWT2aG-15" source="8gZVjbfg4hmPIhG3AT7P-33" target="8gZVjbfg4hmPIhG3AT7P-35">
          <mxGeometry relative="1" as="geometry" />
        </mxCell>
        <mxCell id="8gZVjbfg4hmPIhG3AT7P-23" value="" style="edgeStyle=orthogonalEdgeStyle;rounded=0;orthogonalLoop=1;jettySize=auto;html=1;entryX=0;entryY=0.5;entryDx=0;entryDy=0;exitX=0.5;exitY=1;exitDx=0;exitDy=0;" edge="1" parent="3nuBFxr9cyL0pnOWT2aG-15" source="8gZVjbfg4hmPIhG3AT7P-20" target="3nuBFxr9cyL0pnOWT2aG-9">
          <mxGeometry relative="1" as="geometry">
            <mxPoint x="109" y="12" as="sourcePoint" />
            <mxPoint x="340" y="-510" as="targetPoint" />
          </mxGeometry>
        </mxCell>
        <mxCell id="W2rVxUREge4952YScxTI-56" value="" style="edgeStyle=orthogonalEdgeStyle;rounded=0;orthogonalLoop=1;jettySize=auto;html=1;" edge="1" parent="3nuBFxr9cyL0pnOWT2aG-1" source="8gZVjbfg4hmPIhG3AT7P-14" target="8gZVjbfg4hmPIhG3AT7P-20">
          <mxGeometry relative="1" as="geometry" />
        </mxCell>
      </root>
    </mxGraphModel>
  </diagram>
  <diagram id="POBBTVQxZTX1i6_GhXPW" name="Process create order &amp; food serving with special events">
    <mxGraphModel dx="1444" dy="811" grid="1" gridSize="10" guides="1" tooltips="1" connect="1" arrows="1" fold="1" page="1" pageScale="1" pageWidth="850" pageHeight="1100" math="0" shadow="0">
      <root>
        <mxCell id="0" />
        <mxCell id="1" parent="0" />
        <mxCell id="srnD8k7QyPjP2JszpDHm-1" value="Process Order Via Mobile (Booking)" style="shape=table;childLayout=tableLayout;startSize=40;collapsible=0;recursiveResize=0;expand=0;fillColor=none;fontStyle=1;strokeColor=default;movable=1;resizable=1;rotatable=1;deletable=1;editable=1;locked=0;connectable=1;" vertex="1" parent="1">
          <mxGeometry x="41" y="50" width="809" height="1190" as="geometry" />
        </mxCell>
        <mxCell id="srnD8k7QyPjP2JszpDHm-2" value="Process Create Order" style="shape=tableRow;horizontal=0;swimlaneHead=0;swimlaneBody=0;top=0;left=0;bottom=0;right=0;fillColor=none;points=[[0,0.5],[1,0.5]];portConstraint=eastwest;startSize=40;collapsible=0;recursiveResize=0;expand=0;fontStyle=1;verticalAlign=middle;" vertex="1" parent="srnD8k7QyPjP2JszpDHm-1">
          <mxGeometry y="40" width="809" height="900" as="geometry" />
        </mxCell>
        <mxCell id="srnD8k7QyPjP2JszpDHm-3" value="Visitor" style="swimlane;swimlaneHead=0;swimlaneBody=0;connectable=0;fillColor=none;startSize=40;collapsible=0;recursiveResize=0;expand=0;fontStyle=1;" vertex="1" parent="srnD8k7QyPjP2JszpDHm-2">
          <mxGeometry x="40" width="240" height="900" as="geometry">
            <mxRectangle width="240" height="900" as="alternateBounds" />
          </mxGeometry>
        </mxCell>
        <mxCell id="srnD8k7QyPjP2JszpDHm-4" style="edgeStyle=orthogonalEdgeStyle;rounded=0;orthogonalLoop=1;jettySize=auto;html=1;" edge="1" parent="srnD8k7QyPjP2JszpDHm-3" source="srnD8k7QyPjP2JszpDHm-5" target="srnD8k7QyPjP2JszpDHm-7">
          <mxGeometry relative="1" as="geometry" />
        </mxCell>
        <mxCell id="srnD8k7QyPjP2JszpDHm-5" value="Start" style="rounded=1;whiteSpace=wrap;html=1;arcSize=50;" vertex="1" parent="srnD8k7QyPjP2JszpDHm-3">
          <mxGeometry x="11" y="60" width="90" height="40" as="geometry" />
        </mxCell>
        <mxCell id="srnD8k7QyPjP2JszpDHm-7" value="Visitor ke kasir" style="rounded=0;whiteSpace=wrap;html=1;" vertex="1" parent="srnD8k7QyPjP2JszpDHm-3">
          <mxGeometry x="129" y="60" width="100" height="40" as="geometry" />
        </mxCell>
        <mxCell id="i5tUwRQeHIYrtKErV6PV-53" value="" style="edgeStyle=orthogonalEdgeStyle;rounded=0;orthogonalLoop=1;jettySize=auto;html=1;" edge="1" parent="srnD8k7QyPjP2JszpDHm-3" source="srnD8k7QyPjP2JszpDHm-11" target="i5tUwRQeHIYrtKErV6PV-52">
          <mxGeometry relative="1" as="geometry" />
        </mxCell>
        <mxCell id="srnD8k7QyPjP2JszpDHm-11" value="Terima QR kode booking" style="rounded=0;whiteSpace=wrap;html=1;" vertex="1" parent="srnD8k7QyPjP2JszpDHm-3">
          <mxGeometry x="20" y="348" width="90" height="40" as="geometry" />
        </mxCell>
        <mxCell id="wUA0ytrfeXaO75hWdk9c-2" value="" style="edgeStyle=orthogonalEdgeStyle;rounded=0;orthogonalLoop=1;jettySize=auto;html=1;" edge="1" parent="srnD8k7QyPjP2JszpDHm-3" source="srnD8k7QyPjP2JszpDHm-30" target="wUA0ytrfeXaO75hWdk9c-1">
          <mxGeometry relative="1" as="geometry" />
        </mxCell>
        <mxCell id="srnD8k7QyPjP2JszpDHm-30" value="Pilih menu" style="rounded=0;whiteSpace=wrap;html=1;" vertex="1" parent="srnD8k7QyPjP2JszpDHm-3">
          <mxGeometry x="140" y="497" width="90" height="50" as="geometry" />
        </mxCell>
        <mxCell id="i5tUwRQeHIYrtKErV6PV-56" value="" style="edgeStyle=orthogonalEdgeStyle;rounded=0;orthogonalLoop=1;jettySize=auto;html=1;" edge="1" parent="srnD8k7QyPjP2JszpDHm-3" source="i5tUwRQeHIYrtKErV6PV-52" target="i5tUwRQeHIYrtKErV6PV-55">
          <mxGeometry relative="1" as="geometry" />
        </mxCell>
        <mxCell id="i5tUwRQeHIYrtKErV6PV-52" value="Scan kode booking dan cari meja" style="whiteSpace=wrap;html=1;rounded=0;" vertex="1" parent="srnD8k7QyPjP2JszpDHm-3">
          <mxGeometry x="17.5" y="420" width="95" height="50" as="geometry" />
        </mxCell>
        <mxCell id="i5tUwRQeHIYrtKErV6PV-57" value="" style="edgeStyle=orthogonalEdgeStyle;rounded=0;orthogonalLoop=1;jettySize=auto;html=1;" edge="1" parent="srnD8k7QyPjP2JszpDHm-3" source="i5tUwRQeHIYrtKErV6PV-55" target="srnD8k7QyPjP2JszpDHm-30">
          <mxGeometry relative="1" as="geometry" />
        </mxCell>
        <mxCell id="i5tUwRQeHIYrtKErV6PV-55" value="Scan no meja dan submit" style="whiteSpace=wrap;html=1;rounded=0;" vertex="1" parent="srnD8k7QyPjP2JszpDHm-3">
          <mxGeometry x="138" y="420" width="95" height="50" as="geometry" />
        </mxCell>
        <mxCell id="zP2YYStBj8IdD1hGngW0-2" value="" style="edgeStyle=orthogonalEdgeStyle;rounded=0;orthogonalLoop=1;jettySize=auto;html=1;" edge="1" parent="srnD8k7QyPjP2JszpDHm-3" source="wUA0ytrfeXaO75hWdk9c-1" target="zP2YYStBj8IdD1hGngW0-1">
          <mxGeometry relative="1" as="geometry">
            <Array as="points">
              <mxPoint x="51" y="560" />
              <mxPoint x="51" y="560" />
            </Array>
          </mxGeometry>
        </mxCell>
        <mxCell id="wUA0ytrfeXaO75hWdk9c-1" value="Chekout" style="rounded=0;whiteSpace=wrap;html=1;" vertex="1" parent="srnD8k7QyPjP2JszpDHm-3">
          <mxGeometry x="20" y="497" width="90" height="50" as="geometry" />
        </mxCell>
        <mxCell id="jn4VrilqbSuxVPEAdZFP-2" value="" style="edgeStyle=orthogonalEdgeStyle;rounded=0;orthogonalLoop=1;jettySize=auto;html=1;" edge="1" parent="srnD8k7QyPjP2JszpDHm-3" source="zP2YYStBj8IdD1hGngW0-1" target="jn4VrilqbSuxVPEAdZFP-1">
          <mxGeometry relative="1" as="geometry" />
        </mxCell>
        <mxCell id="jn4VrilqbSuxVPEAdZFP-3" value="Yes" style="edgeLabel;html=1;align=center;verticalAlign=middle;resizable=0;points=[];" vertex="1" connectable="0" parent="jn4VrilqbSuxVPEAdZFP-2">
          <mxGeometry x="-0.2976" y="-3" relative="1" as="geometry">
            <mxPoint as="offset" />
          </mxGeometry>
        </mxCell>
        <mxCell id="zP2YYStBj8IdD1hGngW0-1" value="Special event?" style="rhombus;whiteSpace=wrap;html=1;" vertex="1" parent="srnD8k7QyPjP2JszpDHm-3">
          <mxGeometry x="11" y="583" width="80" height="67" as="geometry" />
        </mxCell>
        <mxCell id="qfsDTTcd4HLTwHyDXMCs-2" value="" style="edgeStyle=orthogonalEdgeStyle;rounded=0;orthogonalLoop=1;jettySize=auto;html=1;" edge="1" parent="srnD8k7QyPjP2JszpDHm-3" source="jn4VrilqbSuxVPEAdZFP-1" target="qfsDTTcd4HLTwHyDXMCs-1">
          <mxGeometry relative="1" as="geometry" />
        </mxCell>
        <mxCell id="jn4VrilqbSuxVPEAdZFP-1" value="Cek minimun order" style="rounded=0;whiteSpace=wrap;html=1;" vertex="1" parent="srnD8k7QyPjP2JszpDHm-3">
          <mxGeometry x="143" y="603" width="90" height="40" as="geometry" />
        </mxCell>
        <mxCell id="Qq_s3qHx3lPzQlgTP0EJ-3" value="" style="edgeStyle=orthogonalEdgeStyle;rounded=0;orthogonalLoop=1;jettySize=auto;html=1;entryX=1;entryY=0.5;entryDx=0;entryDy=0;" edge="1" parent="srnD8k7QyPjP2JszpDHm-3" source="qfsDTTcd4HLTwHyDXMCs-1" target="Qq_s3qHx3lPzQlgTP0EJ-1">
          <mxGeometry relative="1" as="geometry">
            <mxPoint x="188" y="802.9999999999998" as="targetPoint" />
            <Array as="points">
              <mxPoint x="189" y="784" />
            </Array>
          </mxGeometry>
        </mxCell>
        <mxCell id="Qq_s3qHx3lPzQlgTP0EJ-4" value="Yes" style="edgeLabel;html=1;align=center;verticalAlign=middle;resizable=0;points=[];" vertex="1" connectable="0" parent="Qq_s3qHx3lPzQlgTP0EJ-3">
          <mxGeometry x="0.0422" y="-1" relative="1" as="geometry">
            <mxPoint x="1" as="offset" />
          </mxGeometry>
        </mxCell>
        <mxCell id="qfsDTTcd4HLTwHyDXMCs-1" value="Fulfilled?" style="rhombus;whiteSpace=wrap;html=1;" vertex="1" parent="srnD8k7QyPjP2JszpDHm-3">
          <mxGeometry x="153" y="673" width="70" height="50" as="geometry" />
        </mxCell>
        <mxCell id="HiiNab45yTQBrEbJ_BMA-1" value="" style="edgeStyle=orthogonalEdgeStyle;rounded=0;orthogonalLoop=1;jettySize=auto;html=1;" edge="1" parent="srnD8k7QyPjP2JszpDHm-3" source="Qq_s3qHx3lPzQlgTP0EJ-1" target="srnD8k7QyPjP2JszpDHm-34">
          <mxGeometry relative="1" as="geometry" />
        </mxCell>
        <mxCell id="HiiNab45yTQBrEbJ_BMA-2" value="" style="edgeStyle=orthogonalEdgeStyle;rounded=0;orthogonalLoop=1;jettySize=auto;html=1;" edge="1" parent="srnD8k7QyPjP2JszpDHm-3" source="Qq_s3qHx3lPzQlgTP0EJ-1" target="srnD8k7QyPjP2JszpDHm-39">
          <mxGeometry relative="1" as="geometry" />
        </mxCell>
        <mxCell id="Qq_s3qHx3lPzQlgTP0EJ-1" value="Payment" style="rounded=0;whiteSpace=wrap;html=1;" vertex="1" parent="srnD8k7QyPjP2JszpDHm-3">
          <mxGeometry x="16" y="764" width="90" height="40" as="geometry" />
        </mxCell>
        <mxCell id="Qq_s3qHx3lPzQlgTP0EJ-6" value="" style="edgeStyle=orthogonalEdgeStyle;rounded=0;orthogonalLoop=1;jettySize=auto;html=1;entryX=0;entryY=0.75;entryDx=0;entryDy=0;" edge="1" parent="srnD8k7QyPjP2JszpDHm-3" source="qfsDTTcd4HLTwHyDXMCs-1" target="srnD8k7QyPjP2JszpDHm-30">
          <mxGeometry relative="1" as="geometry">
            <mxPoint x="73" y="697.9999999999998" as="targetPoint" />
            <Array as="points">
              <mxPoint x="120" y="698" />
              <mxPoint x="120" y="535" />
            </Array>
          </mxGeometry>
        </mxCell>
        <mxCell id="Qq_s3qHx3lPzQlgTP0EJ-7" value="No" style="edgeLabel;html=1;align=center;verticalAlign=middle;resizable=0;points=[];" vertex="1" connectable="0" parent="Qq_s3qHx3lPzQlgTP0EJ-6">
          <mxGeometry x="0.5458" relative="1" as="geometry">
            <mxPoint as="offset" />
          </mxGeometry>
        </mxCell>
        <mxCell id="srnD8k7QyPjP2JszpDHm-34" value="Orderan masuk ke kitchen" style="shape=cylinder3;whiteSpace=wrap;html=1;boundedLbl=1;backgroundOutline=1;size=15;" vertex="1" parent="srnD8k7QyPjP2JszpDHm-3">
          <mxGeometry x="29" y="656" width="64" height="77" as="geometry" />
        </mxCell>
        <mxCell id="srnD8k7QyPjP2JszpDHm-39" value="Visitor menunggu orderan" style="rounded=0;whiteSpace=wrap;html=1;" vertex="1" parent="srnD8k7QyPjP2JszpDHm-3">
          <mxGeometry x="16" y="831" width="94" height="49" as="geometry" />
        </mxCell>
        <mxCell id="srnD8k7QyPjP2JszpDHm-35" value="Cashier" style="swimlane;swimlaneHead=0;swimlaneBody=0;connectable=0;fillColor=none;startSize=40;collapsible=0;recursiveResize=0;expand=0;fontStyle=1;" vertex="1" parent="srnD8k7QyPjP2JszpDHm-2">
          <mxGeometry x="280" width="279" height="900" as="geometry">
            <mxRectangle width="279" height="900" as="alternateBounds" />
          </mxGeometry>
        </mxCell>
        <mxCell id="i5tUwRQeHIYrtKErV6PV-37" value="" style="edgeStyle=orthogonalEdgeStyle;rounded=0;orthogonalLoop=1;jettySize=auto;html=1;" edge="1" parent="srnD8k7QyPjP2JszpDHm-35" source="i5tUwRQeHIYrtKErV6PV-34">
          <mxGeometry relative="1" as="geometry">
            <mxPoint x="75" y="141" as="targetPoint" />
          </mxGeometry>
        </mxCell>
        <mxCell id="i5tUwRQeHIYrtKErV6PV-34" value="Login ke web" style="rounded=0;whiteSpace=wrap;html=1;" vertex="1" parent="srnD8k7QyPjP2JszpDHm-35">
          <mxGeometry x="25" y="60" width="100" height="40" as="geometry" />
        </mxCell>
        <mxCell id="i5tUwRQeHIYrtKErV6PV-40" value="" style="edgeStyle=orthogonalEdgeStyle;rounded=0;orthogonalLoop=1;jettySize=auto;html=1;" edge="1" parent="srnD8k7QyPjP2JszpDHm-35" source="i5tUwRQeHIYrtKErV6PV-38" target="i5tUwRQeHIYrtKErV6PV-39">
          <mxGeometry relative="1" as="geometry" />
        </mxCell>
        <mxCell id="i5tUwRQeHIYrtKErV6PV-41" value="On" style="edgeLabel;html=1;align=center;verticalAlign=middle;resizable=0;points=[];" vertex="1" connectable="0" parent="i5tUwRQeHIYrtKErV6PV-40">
          <mxGeometry x="-0.2159" y="1" relative="1" as="geometry">
            <mxPoint as="offset" />
          </mxGeometry>
        </mxCell>
        <mxCell id="i5tUwRQeHIYrtKErV6PV-44" value="" style="edgeStyle=orthogonalEdgeStyle;rounded=0;orthogonalLoop=1;jettySize=auto;html=1;entryX=0.5;entryY=0;entryDx=0;entryDy=0;" edge="1" parent="srnD8k7QyPjP2JszpDHm-35" target="i5tUwRQeHIYrtKErV6PV-42">
          <mxGeometry relative="1" as="geometry">
            <mxPoint x="75" y="160.0000000000001" as="sourcePoint" />
            <mxPoint x="75" y="260.0000000000001" as="targetPoint" />
          </mxGeometry>
        </mxCell>
        <mxCell id="i5tUwRQeHIYrtKErV6PV-49" value="Off" style="edgeLabel;html=1;align=center;verticalAlign=middle;resizable=0;points=[];" vertex="1" connectable="0" parent="i5tUwRQeHIYrtKErV6PV-44">
          <mxGeometry x="0.632" y="4" relative="1" as="geometry">
            <mxPoint as="offset" />
          </mxGeometry>
        </mxCell>
        <mxCell id="i5tUwRQeHIYrtKErV6PV-38" value="Klik tombol on/off special event" style="rhombus;whiteSpace=wrap;html=1;" vertex="1" parent="srnD8k7QyPjP2JszpDHm-35">
          <mxGeometry x="15" y="140" width="120" height="90" as="geometry" />
        </mxCell>
        <mxCell id="i5tUwRQeHIYrtKErV6PV-47" value="" style="edgeStyle=orthogonalEdgeStyle;rounded=0;orthogonalLoop=1;jettySize=auto;html=1;entryX=1;entryY=0.775;entryDx=0;entryDy=0;entryPerimeter=0;" edge="1" parent="srnD8k7QyPjP2JszpDHm-35" source="i5tUwRQeHIYrtKErV6PV-39" target="i5tUwRQeHIYrtKErV6PV-42">
          <mxGeometry relative="1" as="geometry">
            <mxPoint x="224" y="275.0000000000001" as="targetPoint" />
            <Array as="points">
              <mxPoint x="224" y="300" />
            </Array>
          </mxGeometry>
        </mxCell>
        <mxCell id="i5tUwRQeHIYrtKErV6PV-39" value="Input jumlah visitor" style="rounded=0;whiteSpace=wrap;html=1;" vertex="1" parent="srnD8k7QyPjP2JszpDHm-35">
          <mxGeometry x="179" y="165" width="90" height="40" as="geometry" />
        </mxCell>
        <mxCell id="i5tUwRQeHIYrtKErV6PV-45" value="" style="edgeStyle=orthogonalEdgeStyle;rounded=0;orthogonalLoop=1;jettySize=auto;html=1;" edge="1" parent="srnD8k7QyPjP2JszpDHm-35" source="i5tUwRQeHIYrtKErV6PV-42" target="i5tUwRQeHIYrtKErV6PV-43">
          <mxGeometry relative="1" as="geometry" />
        </mxCell>
        <mxCell id="i5tUwRQeHIYrtKErV6PV-42" value="Input oder name" style="rounded=0;whiteSpace=wrap;html=1;" vertex="1" parent="srnD8k7QyPjP2JszpDHm-35">
          <mxGeometry x="29" y="269" width="90" height="40" as="geometry" />
        </mxCell>
        <mxCell id="i5tUwRQeHIYrtKErV6PV-43" value="Generate dan print QR kode booking" style="rounded=0;whiteSpace=wrap;html=1;" vertex="1" parent="srnD8k7QyPjP2JszpDHm-35">
          <mxGeometry x="24" y="345" width="101" height="45" as="geometry" />
        </mxCell>
        <mxCell id="srnD8k7QyPjP2JszpDHm-36" value="Kitchen" style="swimlane;swimlaneHead=0;swimlaneBody=0;connectable=0;fillColor=none;startSize=40;collapsible=0;recursiveResize=0;expand=0;fontStyle=1;" vertex="1" parent="srnD8k7QyPjP2JszpDHm-2">
          <mxGeometry x="559" width="250" height="900" as="geometry">
            <mxRectangle width="250" height="900" as="alternateBounds" />
          </mxGeometry>
        </mxCell>
        <mxCell id="i5tUwRQeHIYrtKErV6PV-35" value="" style="edgeStyle=orthogonalEdgeStyle;rounded=0;orthogonalLoop=1;jettySize=auto;html=1;" edge="1" parent="srnD8k7QyPjP2JszpDHm-2" source="srnD8k7QyPjP2JszpDHm-7" target="i5tUwRQeHIYrtKErV6PV-34">
          <mxGeometry relative="1" as="geometry" />
        </mxCell>
        <mxCell id="i5tUwRQeHIYrtKErV6PV-51" value="" style="edgeStyle=orthogonalEdgeStyle;rounded=0;orthogonalLoop=1;jettySize=auto;html=1;entryX=1;entryY=0.5;entryDx=0;entryDy=0;" edge="1" parent="srnD8k7QyPjP2JszpDHm-2" source="i5tUwRQeHIYrtKErV6PV-43" target="srnD8k7QyPjP2JszpDHm-11">
          <mxGeometry relative="1" as="geometry">
            <mxPoint x="224" y="367.5000000000001" as="targetPoint" />
          </mxGeometry>
        </mxCell>
        <mxCell id="srnD8k7QyPjP2JszpDHm-37" value="Process Food Serving" style="shape=tableRow;horizontal=0;swimlaneHead=0;swimlaneBody=0;top=0;left=0;bottom=0;right=0;fillColor=none;points=[[0,0.5],[1,0.5]];portConstraint=eastwest;startSize=40;collapsible=0;recursiveResize=0;expand=0;fontStyle=1;" vertex="1" parent="srnD8k7QyPjP2JszpDHm-1">
          <mxGeometry y="940" width="809" height="250" as="geometry" />
        </mxCell>
        <mxCell id="srnD8k7QyPjP2JszpDHm-38" value="" style="swimlane;swimlaneHead=0;swimlaneBody=0;connectable=0;fillColor=none;startSize=0;collapsible=0;recursiveResize=0;expand=0;fontStyle=1;" vertex="1" parent="srnD8k7QyPjP2JszpDHm-37">
          <mxGeometry x="40" width="240" height="250" as="geometry">
            <mxRectangle width="240" height="250" as="alternateBounds" />
          </mxGeometry>
        </mxCell>
        <mxCell id="srnD8k7QyPjP2JszpDHm-40" value="" style="swimlane;swimlaneHead=0;swimlaneBody=0;connectable=0;fillColor=none;startSize=0;collapsible=0;recursiveResize=0;expand=0;fontStyle=1;" vertex="1" parent="srnD8k7QyPjP2JszpDHm-37">
          <mxGeometry x="280" width="279" height="250" as="geometry">
            <mxRectangle width="279" height="250" as="alternateBounds" />
          </mxGeometry>
        </mxCell>
        <mxCell id="srnD8k7QyPjP2JszpDHm-46" value="" style="swimlane;swimlaneHead=0;swimlaneBody=0;connectable=0;fillColor=none;startSize=0;collapsible=0;recursiveResize=0;expand=0;fontStyle=1;" vertex="1" parent="srnD8k7QyPjP2JszpDHm-37">
          <mxGeometry x="559" width="250" height="250" as="geometry">
            <mxRectangle width="250" height="250" as="alternateBounds" />
          </mxGeometry>
        </mxCell>
        <mxCell id="srnD8k7QyPjP2JszpDHm-41" value="Lihat list orderan" style="rounded=0;whiteSpace=wrap;html=1;" vertex="1" parent="srnD8k7QyPjP2JszpDHm-46">
          <mxGeometry x="30" y="10" width="90" height="40" as="geometry" />
        </mxCell>
        <mxCell id="srnD8k7QyPjP2JszpDHm-43" value="Masak" style="rounded=0;whiteSpace=wrap;html=1;" vertex="1" parent="srnD8k7QyPjP2JszpDHm-46">
          <mxGeometry x="150" y="10" width="90" height="40" as="geometry" />
        </mxCell>
        <mxCell id="srnD8k7QyPjP2JszpDHm-44" value="" style="edgeStyle=orthogonalEdgeStyle;rounded=0;orthogonalLoop=1;jettySize=auto;html=1;" edge="1" parent="srnD8k7QyPjP2JszpDHm-46" source="srnD8k7QyPjP2JszpDHm-41" target="srnD8k7QyPjP2JszpDHm-43">
          <mxGeometry relative="1" as="geometry" />
        </mxCell>
        <mxCell id="srnD8k7QyPjP2JszpDHm-45" value="Update food already cooked" style="rounded=0;whiteSpace=wrap;html=1;" vertex="1" parent="srnD8k7QyPjP2JszpDHm-46">
          <mxGeometry x="150" y="80" width="90" height="40" as="geometry" />
        </mxCell>
        <mxCell id="srnD8k7QyPjP2JszpDHm-42" value="" style="edgeStyle=orthogonalEdgeStyle;rounded=0;orthogonalLoop=1;jettySize=auto;html=1;" edge="1" parent="srnD8k7QyPjP2JszpDHm-46" source="srnD8k7QyPjP2JszpDHm-43" target="srnD8k7QyPjP2JszpDHm-45">
          <mxGeometry relative="1" as="geometry" />
        </mxCell>
        <mxCell id="srnD8k7QyPjP2JszpDHm-51" value="" style="edgeStyle=orthogonalEdgeStyle;rounded=0;orthogonalLoop=1;jettySize=auto;html=1;entryX=0;entryY=0.5;entryDx=0;entryDy=0;exitX=0.426;exitY=0.956;exitDx=0;exitDy=0;exitPerimeter=0;" edge="1" parent="srnD8k7QyPjP2JszpDHm-1" source="srnD8k7QyPjP2JszpDHm-39" target="srnD8k7QyPjP2JszpDHm-41">
          <mxGeometry relative="1" as="geometry">
            <mxPoint x="105" y="1050" as="sourcePoint" />
            <mxPoint x="340" y="430" as="targetPoint" />
            <Array as="points">
              <mxPoint x="96" y="970" />
            </Array>
          </mxGeometry>
        </mxCell>
        <mxCell id="i5tUwRQeHIYrtKErV6PV-1" value="Waitress" style="swimlane;startSize=40;" vertex="1" parent="1">
          <mxGeometry x="850" y="90" width="220" height="900" as="geometry">
            <mxRectangle x="850" y="90" width="90" height="40" as="alternateBounds" />
          </mxGeometry>
        </mxCell>
        <mxCell id="srnD8k7QyPjP2JszpDHm-48" value="Update food served" style="rounded=0;whiteSpace=wrap;html=1;" vertex="1" parent="i5tUwRQeHIYrtKErV6PV-1">
          <mxGeometry x="30" y="980" width="90" height="40" as="geometry" />
        </mxCell>
        <mxCell id="srnD8k7QyPjP2JszpDHm-49" value="Anter ke meja visitor" style="rounded=0;whiteSpace=wrap;html=1;" vertex="1" parent="i5tUwRQeHIYrtKErV6PV-1">
          <mxGeometry x="30" y="1050" width="90" height="40" as="geometry" />
        </mxCell>
        <mxCell id="srnD8k7QyPjP2JszpDHm-47" value="" style="edgeStyle=orthogonalEdgeStyle;rounded=0;orthogonalLoop=1;jettySize=auto;html=1;" edge="1" parent="i5tUwRQeHIYrtKErV6PV-1" source="srnD8k7QyPjP2JszpDHm-48" target="srnD8k7QyPjP2JszpDHm-49">
          <mxGeometry relative="1" as="geometry" />
        </mxCell>
        <mxCell id="srnD8k7QyPjP2JszpDHm-50" value="" style="edgeStyle=orthogonalEdgeStyle;rounded=0;orthogonalLoop=1;jettySize=auto;html=1;" edge="1" parent="1" source="srnD8k7QyPjP2JszpDHm-45" target="srnD8k7QyPjP2JszpDHm-48">
          <mxGeometry relative="1" as="geometry" />
        </mxCell>
        <mxCell id="vqF95VGkzoP1Dcm0QJNz-2" value="" style="rounded=0;whiteSpace=wrap;html=1;fillColor=none;" vertex="1" parent="1">
          <mxGeometry x="850" y="990" width="220" height="250" as="geometry" />
        </mxCell>
      </root>
    </mxGraphModel>
  </diagram>
  <diagram id="U3x3dcEK1tnjZQFBxFTm" name="Page-3">
    <mxGraphModel dx="794" dy="446" grid="1" gridSize="10" guides="1" tooltips="1" connect="1" arrows="1" fold="1" page="1" pageScale="1" pageWidth="850" pageHeight="1100" math="0" shadow="0">
      <root>
        <mxCell id="0" />
        <mxCell id="1" parent="0" />
      </root>
    </mxGraphModel>
  </diagram>
</mxfile>
